<svg width="37" height="37" viewBox="0 0 37 37" fill="none" xmlns="http://www.w3.org/2000/svg">
<path d="M26.75 2H10.25C5.69365 2 2 5.69365 2 10.25V26.75C2 31.3064 5.69365 35 10.25 35H26.75C31.3064 35 35 31.3064 35 26.75V10.25C35 5.69365 31.3064 2 26.75 2Z" stroke="white" stroke-width="4" stroke-linecap="round" stroke-linejoin="round"/>
<path d="M25.1001 17.4605C25.3037 18.8337 25.0692 20.2362 24.4298 21.4684C23.7904 22.7006 22.7788 23.6998 21.5388 24.324C20.2988 24.9481 18.8936 25.1653 17.523 24.9448C16.1524 24.7243 14.8862 24.0771 13.9046 23.0955C12.923 22.1139 12.2759 20.8478 12.0553 19.4772C11.8348 18.1066 12.052 16.7013 12.6762 15.4613C13.3003 14.2213 14.2995 13.2097 15.5317 12.5703C16.764 11.9309 18.1664 11.6964 19.5396 11.9C20.9403 12.1077 22.2371 12.7604 23.2384 13.7617C24.2397 14.763 24.8924 16.0598 25.1001 17.4605Z" stroke="white" stroke-width="4" stroke-linecap="round" stroke-linejoin="round"/>
<path d="M27.5751 9.42487H27.5896" stroke="white" stroke-width="4" stroke-linecap="round" stroke-linejoin="round"/>
</svg>
